<svg width="250" height="70" viewBox="0 0 250 70" fill="none" xmlns="http://www.w3.org/2000/svg">
<path d="M18.013 33.531L18.046 19.605C18.046 18.989 18.035 18.461 18.013 18.021C18.013 17.559 18.002 17.262 17.98 17.13C18.134 17.086 18.442 17.042 18.904 16.998C19.366 16.954 19.894 16.921 20.488 16.899C21.082 16.855 21.687 16.822 22.303 16.8C22.941 16.756 23.513 16.734 24.019 16.734C25.801 16.734 27.187 16.976 28.177 17.46C29.189 17.922 29.904 18.659 30.322 19.671C30.74 20.683 30.905 21.992 30.817 23.598C30.773 25.182 30.564 26.458 30.19 27.426C29.816 28.372 29.211 29.065 28.375 29.505C27.539 29.923 26.395 30.132 24.943 30.132C24.063 30.132 23.26 30.044 22.534 29.868C21.83 29.692 21.258 29.395 20.818 28.977C20.378 28.537 20.092 27.91 19.96 27.096L20.356 26.733V33.531H18.013ZM24.481 28.746C25.845 28.746 26.857 28.339 27.517 27.525C28.177 26.711 28.507 25.336 28.507 23.4C28.551 21.442 28.243 20.067 27.583 19.275C26.923 18.483 25.735 18.087 24.019 18.087C23.689 18.087 23.271 18.098 22.765 18.12C22.281 18.142 21.808 18.175 21.346 18.219C20.906 18.241 20.576 18.274 20.356 18.318V24.918C20.356 25.952 20.521 26.744 20.851 27.294C21.203 27.844 21.687 28.229 22.303 28.449C22.919 28.647 23.645 28.746 24.481 28.746ZM39.8966 30.231C38.5986 30.231 37.5426 30.165 36.7286 30.033C35.9146 29.901 35.2876 29.681 34.8476 29.373C34.4296 29.043 34.1326 28.614 33.9566 28.086C33.8026 27.558 33.7256 26.909 33.7256 26.139C33.7256 25.017 33.8576 24.159 34.1216 23.565C34.3856 22.971 34.8476 22.564 35.5076 22.344C36.1676 22.124 37.0476 22.014 38.1476 22.014C38.6976 22.014 39.2916 22.036 39.9296 22.08C40.5896 22.102 41.2166 22.135 41.8106 22.179C42.4266 22.201 42.9546 22.234 43.3946 22.278C43.8566 22.322 44.1646 22.377 44.3186 22.443C44.3186 21.431 44.2306 20.628 44.0546 20.034C43.8786 19.44 43.6036 19 43.2296 18.714C42.8776 18.428 42.4266 18.241 41.8766 18.153C41.3486 18.065 40.7326 18.021 40.0286 18.021C39.3026 18.021 38.5656 18.054 37.8176 18.12C37.0916 18.164 36.4206 18.252 35.8046 18.384C35.1886 18.494 34.7156 18.648 34.3856 18.846V18.351C34.3856 17.889 34.5176 17.57 34.7816 17.394C35.0676 17.196 35.3866 17.064 35.7386 16.998C36.1566 16.888 36.7616 16.8 37.5536 16.734C38.3676 16.668 39.2146 16.646 40.0946 16.668C41.2166 16.668 42.1736 16.723 42.9656 16.833C43.7796 16.943 44.4506 17.185 44.9786 17.559C45.5066 17.911 45.9026 18.45 46.1666 19.176C46.4306 19.902 46.5626 20.892 46.5626 22.146V28.944C46.4306 29.384 45.8476 29.714 44.8136 29.934C43.7796 30.132 42.1406 30.231 39.8966 30.231ZM39.8966 29.109C40.9086 29.109 41.7116 29.076 42.3056 29.01C42.9216 28.944 43.3836 28.856 43.6916 28.746C44.0216 28.636 44.2306 28.493 44.3186 28.317V23.4C44.1206 23.334 43.7466 23.268 43.1966 23.202C42.6686 23.136 42.1076 23.081 41.5136 23.037C40.9196 22.971 40.4136 22.938 39.9956 22.938C39.0496 22.938 38.2796 22.993 37.6856 23.103C37.1136 23.213 36.6956 23.488 36.4316 23.928C36.1896 24.368 36.0686 25.05 36.0686 25.974C36.0686 26.7 36.1566 27.294 36.3326 27.756C36.5086 28.218 36.8606 28.559 37.3886 28.779C37.9386 28.999 38.7746 29.109 39.8966 29.109ZM50.2718 33.531L50.3048 19.605C50.3048 18.989 50.2938 18.461 50.2718 18.021C50.2718 17.559 50.2608 17.262 50.2388 17.13C50.3928 17.086 50.7008 17.042 51.1628 16.998C51.6248 16.954 52.1528 16.921 52.7468 16.899C53.3408 16.855 53.9458 16.822 54.5618 16.8C55.1998 16.756 55.7718 16.734 56.2778 16.734C58.0598 16.734 59.4458 16.976 60.4358 17.46C61.4478 17.922 62.1628 18.659 62.5808 19.671C62.9988 20.683 63.1638 21.992 63.0758 23.598C63.0318 25.182 62.8228 26.458 62.4488 27.426C62.0748 28.372 61.4698 29.065 60.6338 29.505C59.7978 29.923 58.6538 30.132 57.2018 30.132C56.3218 30.132 55.5188 30.044 54.7928 29.868C54.0888 29.692 53.5168 29.395 53.0768 28.977C52.6368 28.537 52.3508 27.91 52.2188 27.096L52.6148 26.733V33.531H50.2718ZM56.7398 28.746C58.1038 28.746 59.1158 28.339 59.7758 27.525C60.4358 26.711 60.7658 25.336 60.7658 23.4C60.8098 21.442 60.5018 20.067 59.8418 19.275C59.1818 18.483 57.9938 18.087 56.2778 18.087C55.9478 18.087 55.5298 18.098 55.0238 18.12C54.5398 18.142 54.0668 18.175 53.6048 18.219C53.1648 18.241 52.8348 18.274 52.6148 18.318V24.918C52.6148 25.952 52.7798 26.744 53.1098 27.294C53.4618 27.844 53.9458 28.229 54.5618 28.449C55.1778 28.647 55.9038 28.746 56.7398 28.746ZM72.7824 30.198C71.5064 30.198 70.4284 30.11 69.5484 29.934C68.6904 29.758 67.9974 29.428 67.4694 28.944C66.9634 28.46 66.5894 27.789 66.3474 26.931C66.1274 26.051 66.0174 24.918 66.0174 23.532C66.0174 21.948 66.2154 20.65 66.6114 19.638C67.0074 18.626 67.7114 17.878 68.7234 17.394C69.7354 16.91 71.1544 16.668 72.9804 16.668C74.3884 16.668 75.5104 16.855 76.3464 17.229C77.2044 17.603 77.8204 18.175 78.1944 18.945C78.5904 19.715 78.7884 20.716 78.7884 21.948V23.829H69.4824C69.4824 23.565 69.5484 23.345 69.6804 23.169C69.8124 22.971 70.0544 22.872 70.4064 22.872H76.7094L76.6764 21.915C76.6544 20.551 76.3574 19.561 75.7854 18.945C75.2354 18.329 74.2674 18.021 72.8814 18.021C71.7154 18.021 70.8024 18.197 70.1424 18.549C69.4824 18.901 69.0204 19.473 68.7564 20.265C68.4924 21.057 68.3604 22.135 68.3604 23.499C68.3604 24.951 68.5034 26.062 68.7894 26.832C69.0974 27.58 69.6034 28.097 70.3074 28.383C71.0114 28.647 71.9684 28.779 73.1784 28.779C73.5964 28.779 74.0694 28.768 74.5974 28.746C75.1474 28.702 75.6974 28.658 76.2474 28.614C76.7974 28.57 77.2814 28.515 77.6994 28.449C78.1394 28.361 78.4474 28.273 78.6234 28.185V28.581C78.6234 28.801 78.5574 29.01 78.4254 29.208C78.3154 29.406 78.0734 29.571 77.6994 29.703C77.2154 29.901 76.5554 30.033 75.7194 30.099C74.9054 30.165 73.9264 30.198 72.7824 30.198ZM84.1953 30H82.7433C82.4573 30 82.2373 29.934 82.0833 29.802C81.9513 29.648 81.8853 29.373 81.8853 28.977V17.493C82.3693 17.339 83.0293 17.174 83.8653 16.998C84.7233 16.822 85.7793 16.734 87.0333 16.734C88.2213 16.734 89.1563 16.822 89.8383 16.998C90.5423 17.152 91.0483 17.372 91.3563 17.658C91.6863 17.944 91.8953 18.296 91.9833 18.714C92.0933 19.11 92.1483 19.561 92.1483 20.067H89.9373L89.9043 19.605C89.8823 19.099 89.7173 18.736 89.4093 18.516C89.1013 18.274 88.7383 18.131 88.3203 18.087C87.9023 18.021 87.4843 17.988 87.0663 17.988C86.4283 17.988 85.8563 18.043 85.3503 18.153C84.8663 18.263 84.4813 18.406 84.1953 18.582V30ZM97.5479 30.132C96.5359 30.132 95.8099 29.912 95.3699 29.472C94.9299 29.01 94.7099 28.196 94.7099 27.03V14.424C94.7099 14.16 94.7319 13.951 94.7759 13.797C94.8199 13.621 94.9079 13.5 95.0399 13.434C95.1939 13.368 95.4029 13.335 95.6669 13.335H97.0529C97.0529 13.357 97.0419 13.5 97.0199 13.764C96.9979 14.028 96.9869 14.358 96.9869 14.754V26.667C96.9869 27.503 97.0749 28.108 97.2509 28.482C97.4489 28.856 97.8229 29.043 98.3729 29.043C98.5269 29.043 98.7359 29.021 98.9999 28.977C99.2639 28.933 99.4399 28.9 99.5279 28.878V29.901C99.3959 29.923 99.1759 29.967 98.8679 30.033C98.5819 30.099 98.1419 30.132 97.5479 30.132ZM107.942 30.198C106.666 30.198 105.588 30.11 104.708 29.934C103.85 29.758 103.157 29.428 102.629 28.944C102.123 28.46 101.749 27.789 101.507 26.931C101.287 26.051 101.177 24.918 101.177 23.532C101.177 21.948 101.375 20.65 101.771 19.638C102.167 18.626 102.871 17.878 103.883 17.394C104.895 16.91 106.314 16.668 108.14 16.668C109.548 16.668 110.67 16.855 111.506 17.229C112.364 17.603 112.98 18.175 113.354 18.945C113.75 19.715 113.948 20.716 113.948 21.948V23.829H104.642C104.642 23.565 104.708 23.345 104.84 23.169C104.972 22.971 105.214 22.872 105.566 22.872H111.869L111.836 21.915C111.814 20.551 111.517 19.561 110.945 18.945C110.395 18.329 109.427 18.021 108.041 18.021C106.875 18.021 105.962 18.197 105.302 18.549C104.642 18.901 104.18 19.473 103.916 20.265C103.652 21.057 103.52 22.135 103.52 23.499C103.52 24.951 103.663 26.062 103.949 26.832C104.257 27.58 104.763 28.097 105.467 28.383C106.171 28.647 107.128 28.779 108.338 28.779C108.756 28.779 109.229 28.768 109.757 28.746C110.307 28.702 110.857 28.658 111.407 28.614C111.957 28.57 112.441 28.515 112.859 28.449C113.299 28.361 113.607 28.273 113.783 28.185V28.581C113.783 28.801 113.717 29.01 113.585 29.208C113.475 29.406 113.233 29.571 112.859 29.703C112.375 29.901 111.715 30.033 110.879 30.099C110.065 30.165 109.086 30.198 107.942 30.198ZM121.664 30.132C121.29 30.132 120.817 30.121 120.245 30.099C119.695 30.077 119.123 30.033 118.529 29.967C117.957 29.879 117.44 29.758 116.978 29.604C116.758 29.516 116.582 29.428 116.45 29.34C116.318 29.252 116.219 29.098 116.153 28.878C116.109 28.658 116.087 28.328 116.087 27.888C116.571 28.13 117.143 28.328 117.803 28.482C118.463 28.614 119.123 28.702 119.783 28.746C120.443 28.79 120.993 28.812 121.433 28.812C122.093 28.812 122.731 28.79 123.347 28.746C123.985 28.68 124.557 28.559 125.063 28.383C125.569 28.185 125.965 27.899 126.251 27.525C126.559 27.151 126.713 26.656 126.713 26.04C126.713 25.138 126.482 24.566 126.02 24.324C125.558 24.06 124.931 23.928 124.139 23.928H120.806C119.992 23.928 119.222 23.884 118.496 23.796C117.792 23.686 117.209 23.411 116.747 22.971C116.307 22.509 116.087 21.739 116.087 20.661C116.087 19.495 116.373 18.626 116.945 18.054C117.517 17.482 118.32 17.108 119.354 16.932C120.41 16.756 121.631 16.668 123.017 16.668C123.523 16.668 124.128 16.679 124.832 16.701C125.536 16.723 126.207 16.789 126.845 16.899C127.285 16.965 127.648 17.053 127.934 17.163C128.242 17.251 128.462 17.383 128.594 17.559C128.748 17.735 128.825 17.988 128.825 18.318V18.978C128.627 18.758 128.297 18.582 127.835 18.45C127.373 18.318 126.834 18.219 126.218 18.153C125.624 18.087 125.008 18.054 124.37 18.054C123.732 18.032 123.138 18.021 122.588 18.021C121.884 18.021 121.202 18.065 120.542 18.153C119.882 18.241 119.343 18.461 118.925 18.813C118.529 19.143 118.331 19.715 118.331 20.529C118.331 21.145 118.463 21.596 118.727 21.882C118.991 22.168 119.343 22.355 119.783 22.443C120.245 22.509 120.762 22.542 121.334 22.542H124.733C125.569 22.542 126.306 22.619 126.944 22.773C127.604 22.905 128.11 23.224 128.462 23.73C128.836 24.214 129.023 24.984 129.023 26.04C129.023 27.206 128.704 28.086 128.066 28.68C127.428 29.274 126.548 29.67 125.426 29.868C124.326 30.044 123.072 30.132 121.664 30.132ZM136.521 30.132C136.147 30.132 135.674 30.121 135.102 30.099C134.552 30.077 133.98 30.033 133.386 29.967C132.814 29.879 132.297 29.758 131.835 29.604C131.615 29.516 131.439 29.428 131.307 29.34C131.175 29.252 131.076 29.098 131.01 28.878C130.966 28.658 130.944 28.328 130.944 27.888C131.428 28.13 132 28.328 132.66 28.482C133.32 28.614 133.98 28.702 134.64 28.746C135.3 28.79 135.85 28.812 136.29 28.812C136.95 28.812 137.588 28.79 138.204 28.746C138.842 28.68 139.414 28.559 139.92 28.383C140.426 28.185 140.822 27.899 141.108 27.525C141.416 27.151 141.57 26.656 141.57 26.04C141.57 25.138 141.339 24.566 140.877 24.324C140.415 24.06 139.788 23.928 138.996 23.928H135.663C134.849 23.928 134.079 23.884 133.353 23.796C132.649 23.686 132.066 23.411 131.604 22.971C131.164 22.509 130.944 21.739 130.944 20.661C130.944 19.495 131.23 18.626 131.802 18.054C132.374 17.482 133.177 17.108 134.211 16.932C135.267 16.756 136.488 16.668 137.874 16.668C138.38 16.668 138.985 16.679 139.689 16.701C140.393 16.723 141.064 16.789 141.702 16.899C142.142 16.965 142.505 17.053 142.791 17.163C143.099 17.251 143.319 17.383 143.451 17.559C143.605 17.735 143.682 17.988 143.682 18.318V18.978C143.484 18.758 143.154 18.582 142.692 18.45C142.23 18.318 141.691 18.219 141.075 18.153C140.481 18.087 139.865 18.054 139.227 18.054C138.589 18.032 137.995 18.021 137.445 18.021C136.741 18.021 136.059 18.065 135.399 18.153C134.739 18.241 134.2 18.461 133.782 18.813C133.386 19.143 133.188 19.715 133.188 20.529C133.188 21.145 133.32 21.596 133.584 21.882C133.848 22.168 134.2 22.355 134.64 22.443C135.102 22.509 135.619 22.542 136.191 22.542H139.59C140.426 22.542 141.163 22.619 141.801 22.773C142.461 22.905 142.967 23.224 143.319 23.73C143.693 24.214 143.88 24.984 143.88 26.04C143.88 27.206 143.561 28.086 142.923 28.68C142.285 29.274 141.405 29.67 140.283 29.868C139.183 30.044 137.929 30.132 136.521 30.132Z" fill="white"/>
<path d="M64.412 40.572H61.562C61.182 41.028 60.8653 41.6613 60.612 42.472C60.384 43.2827 60.27 44.068 60.27 44.828H65.704C65.7547 44.068 65.6533 43.2827 65.4 42.472C65.1467 41.636 64.8173 41.0027 64.412 40.572ZM69.58 52.01V56H59.928C58.1547 54.8093 56.9007 53.34 56.166 51.592C55.4567 49.8187 55.102 48.0327 55.102 46.234C55.102 42.0793 56.6727 38.862 59.814 36.582H65.97C67.6673 37.8233 68.82 39.1407 69.428 40.534C70.036 41.9273 70.34 43.3333 70.34 44.752C70.34 46.1707 70.226 47.3867 69.998 48.4H60.536C60.612 48.9827 60.8273 49.654 61.182 50.414C61.562 51.1487 61.9673 51.6807 62.398 52.01H69.58ZM78.9408 43.802L81.2968 36.582H86.5788L82.9688 46.044L86.7308 56H81.5248L78.9028 48.476H78.7508L76.2428 56H71.0368L74.7988 46.044L71.1888 36.582H76.3948L78.7888 43.802H78.9408ZM97.4854 47.222H93.4194C92.8874 47.8807 92.6214 48.704 92.6214 49.692C92.6214 50.68 92.9 51.4527 93.4574 52.01H97.4854V47.222ZM89.3154 36.582H98.7394C100.259 37.494 101.26 38.5453 101.741 39.736C102.223 40.9013 102.463 42.4973 102.463 44.524V50.224C102.463 52.3267 102.514 54.252 102.615 56H98.2834L97.5994 54.632C96.6114 55.544 95.218 56 93.4194 56H91.0254C88.872 54.5813 87.7954 52.542 87.7954 49.882C87.7954 47.1967 88.8974 45.0813 91.1014 43.536H94.6734C95.6614 43.536 96.586 43.84 97.4474 44.448V42.548C97.4474 41.56 97.0167 40.9013 96.1554 40.572H89.3154V36.582ZM114.168 36.582H116.866L117.816 37.912C118.348 37.4307 118.854 37.0887 119.336 36.886C119.842 36.6833 120.59 36.582 121.578 36.582H125.796C126.91 38.0007 127.67 39.4193 128.076 40.838C128.481 42.2567 128.684 44.03 128.684 46.158V56H123.63V45.778C123.63 43.4473 123.275 41.712 122.566 40.572H118.918C119.475 41.6613 119.754 43.1433 119.754 45.018V56H114.7V45.778C114.7 43.3713 114.37 41.636 113.712 40.572H110.786V56H105.732V36.582H109.684L110.368 37.95C110.925 37.4433 111.444 37.0887 111.926 36.886C112.432 36.6833 113.18 36.582 114.168 36.582ZM131.668 50.376H137.14V56H131.668V50.376ZM144.436 46.12C144.436 47.184 144.601 48.2733 144.93 49.388C145.259 50.4773 145.715 51.3513 146.298 52.01H151.998V56H143.676C140.687 53.6187 139.192 50.3253 139.192 46.12C139.192 41.9147 140.788 38.7353 143.98 36.582H151.998V40.572H146.298C145.057 41.864 144.436 43.7133 144.436 46.12ZM165.34 56H157.056C154.523 53.644 153.256 50.4267 153.256 46.348C153.256 44.296 153.535 42.51 154.092 40.99C154.675 39.47 155.587 38.0007 156.828 36.582H165.72C167.038 38.102 167.937 39.584 168.418 41.028C168.9 42.4467 169.14 44.22 169.14 46.348C169.14 50.4267 167.874 53.644 165.34 56ZM159.754 52.01H162.642C163.554 50.2367 164.01 48.2227 164.01 45.968C164.01 43.7133 163.542 41.9147 162.604 40.572H159.754C158.842 41.864 158.386 43.7007 158.386 46.082C158.386 48.438 158.842 50.414 159.754 52.01ZM180.297 36.582H184.325C185.439 38.0007 186.199 39.4193 186.605 40.838C187.01 42.2567 187.213 44.03 187.213 46.158V56H182.159V45.778C182.159 43.3713 181.829 41.636 181.171 40.572H176.915V56H171.861V36.582H175.813L176.497 37.95C177.054 37.4433 177.573 37.0887 178.055 36.886C178.561 36.6833 179.309 36.582 180.297 36.582ZM190.887 47.526V40.572H188.265V36.582H190.887V31.3H195.941V36.582H199.057V40.572H195.941V48.742C195.941 50.2873 196.207 51.3767 196.739 52.01H199.057V56H193.661C192.319 54.7587 191.508 53.416 191.229 51.972C191.001 50.756 190.887 49.274 190.887 47.526ZM201.623 56V36.582H205.233L206.183 38.634C207.197 37.266 208.476 36.582 210.021 36.582H211.503V41.674H206.677V56H201.623ZM224.53 56H216.246C213.712 53.644 212.446 50.4267 212.446 46.348C212.446 44.296 212.724 42.51 213.282 40.99C213.864 39.47 214.776 38.0007 216.018 36.582H224.91C226.227 38.102 227.126 39.584 227.608 41.028C228.089 42.4467 228.33 44.22 228.33 46.348C228.33 50.4267 227.063 53.644 224.53 56ZM218.944 52.01H221.832C222.744 50.2367 223.2 48.2227 223.2 45.968C223.2 43.7133 222.731 41.9147 221.794 40.572H218.944C218.032 41.864 217.576 43.7007 217.576 46.082C217.576 48.438 218.032 50.414 218.944 52.01ZM236.066 29.4V56H231.05V29.4H236.066Z" fill="#F99E17"/>
</svg>
